# xmcd
#
# Track frame offsets: 
#        150
#        21600
#        37134
#        51355
#        76461
#        93443
#        108771
#        137102
#        174995
#        193370
#
# Disc length: 2824 seconds
#
# Revision: 0
# Processed by: cddbd v1.5.2PL0 Copyright (c) Steve Scherf et al.
# Submitted via: ExactAudioCopy v1.3
#
DISCID=8d0b060a
DTITLE=The Mason Rack Band - Served Up Raw
DYEAR=2019
DGENRE=Blues
TTITLE0=Hard Goodbye
TTITLE1=Letter Not A Song
TTITLE2=Going Out West
TTITLE3=Whole Lotta Love
TTITLE4=Seen Her Before
TTITLE5=In A Can
TTITLE6=Pool Cleaner
TTITLE7=Baby Please Don´tGo
TTITLE8=Black Betty
TTITLE9=Riot No. 9
EXTD=
EXTT0=
EXTT1=
EXTT2=
EXTT3=
EXTT4=
EXTT5=
EXTT6=
EXTT7=
EXTT8=
EXTT9=
PLAYORDER=
